<?xml version="1.0" standalone="no"?><!DOCTYPE svg PUBLIC "-//W3C//DTD SVG 1.1//EN" "http://www.w3.org/Graphics/SVG/1.1/DTD/svg11.dtd"><svg t="1676562771829" class="icon" viewBox="0 0 1024 1024" version="1.1" xmlns="http://www.w3.org/2000/svg" p-id="4342" width="12" height="12" xmlns:xlink="http://www.w3.org/1999/xlink"><path d="M512 320c-8.288 0-15.776 3.232-21.456 8.4l-0.064-0.08-352 320 0.08 0.08c-6.448 5.85600001-10.56 14.208-10.56000001 23.6a32 32 0 0 0 32.00000001 32c8.288 0 15.76-3.232 21.456-8.39999999l0.08 0.07999999L512 395.248 842.464 695.68l0.08-0.07999999A31.776 31.776 0 0 0 864 704a32 32 0 0 0 32.00000001-32c0-9.376-4.112-17.744-10.54400001-23.6l0.08-0.08-352-320-0.08 0.08c-5.68-5.168-13.168-8.4-21.456-8.4z" p-id="4343" fill="#b0b0b0"></path></svg>