<?xml version="1.0" standalone="no"?><!DOCTYPE svg PUBLIC "-//W3C//DTD SVG 1.1//EN" "http://www.w3.org/Graphics/SVG/1.1/DTD/svg11.dtd"><svg t="1675854176912" class="icon" viewBox="0 0 1024 1024" version="1.1" xmlns="http://www.w3.org/2000/svg" p-id="2462" xmlns:xlink="http://www.w3.org/1999/xlink" width="16" height="16"><path d="M1023.985778 963.640889L761.827556 701.454222c138.396444-168.704 128.867556-418.133333-28.657778-575.672889C649.301333 41.927111 539.392 0 429.482667 0 319.573333 0 209.649778 41.927111 125.795556 125.795556c-167.722667 167.722667-167.722667 439.651556 0 607.374222 83.868444 83.854222 193.777778 125.795556 303.687111 125.795555a428.131556 428.131556 0 0 0 271.985777-97.137777L963.626667 1024l60.359111-60.359111zM429.482667 773.589333a341.802667 341.802667 0 0 1-243.313778-100.792889c-134.172444-134.172444-134.172444-352.469333 0-486.641777a341.845333 341.845333 0 0 1 243.313778-100.778667 341.802667 341.802667 0 0 1 243.313777 100.792889c134.172444 134.172444 134.172444 352.469333 0 486.641778a341.902222 341.902222 0 0 1-243.313777 100.778666z" fill="#231815" p-id="2463"></path></svg>