<?xml version="1.0" standalone="no"?><!DOCTYPE svg PUBLIC "-//W3C//DTD SVG 1.1//EN" "http://www.w3.org/Graphics/SVG/1.1/DTD/svg11.dtd"><svg t="1676729036694" class="icon" viewBox="0 0 1024 1024" version="1.1" xmlns="http://www.w3.org/2000/svg" p-id="2358" width="12" height="12" xmlns:xlink="http://www.w3.org/1999/xlink"><path d="M835.413333 316.586667a42.666667 42.666667 0 0 1-12.586666 30.293333L431.786667 737.92C418.773333 750.933333 405.333333 768 384 746.666667l-202.24-207.36a44.8 44.8 0 0 1-4.053333-60.16 42.666667 42.666667 0 0 1 62.506666-2.133334l161.066667 161.066667a6.826667 6.826667 0 0 0 9.813333 0l352.853334-353.066667a38.4 38.4 0 0 1 37.76-10.666666 44.16 44.16 0 0 1 33.706666 42.24z" p-id="2359" fill="#CCCCCC"></path></svg>